<svg xmlns="http://www.w3.org/2000/svg" xmlns:xlink="http://www.w3.org/1999/xlink" id="Layer_1" width="841.89" height="186.255" x="0" y="0" enable-background="new 0 0 841.89 186.255" version="1.1" viewBox="0 0 841.89 186.255" xml:space="preserve"><g><g><path fill="#F1753E" d="M75.475,19.59c-32.639,0-59.104,26.46-59.104,59.106c0,16.324,6.617,31.091,17.312,41.798l0,0 l48.021,48.033l17.944-17.939l0,0l-48.021-48.047l0,0c-6.103-6.1-9.882-14.533-9.882-23.845c0-18.632,15.102-33.731,33.729-33.731 c18.633,0,33.732,15.099,33.732,33.731c0,18.248-14.489,33.095-32.595,33.701l21.064,21.068 c21.64-8.777,36.907-29.979,36.907-54.769C134.583,46.051,108.122,19.59,75.475,19.59z"/><path fill="#F1753E" d="M91.752,94.978c-8.982,8.995-23.562,8.989-32.555,0s-8.993-23.569,0-32.564 c8.993-8.989,23.572-8.989,32.56,0C100.752,71.409,100.752,85.989,91.752,94.978z"/></g><path fill="#4F4E4E" d="M184.792,165.848c-1.945,1.932-4.231,2.91-6.872,2.91c-2.656,0-4.915-0.979-6.79-2.91 c-1.881-1.939-2.825-4.145-2.825-6.609V56.85c0-2.582,0.917-4.788,2.738-6.617c1.82-1.817,3.996-2.729,6.52-2.729 c2.523,0,4.696,0.705,6.518,2.12c1.825,1.408,2.914,3.11,3.265,5.108c7.402-4.81,15.396-7.228,23.964-7.228 c11.748,0,21.792,4.348,30.138,13.045c8.337,8.696,12.515,19.098,12.515,31.196s-4.178,22.404-12.515,30.92 c-8.346,8.531-18.39,12.789-30.138,12.789c-9.048,0-16.909-2.408-23.613-7.236v31.021 C187.697,161.704,186.724,163.909,184.792,165.848z M227.88,73.937c-4.583-4.809-10.167-7.223-16.743-7.223 c-6.583,0-12.138,2.436-16.66,7.317c-4.517,4.874-6.78,10.953-6.78,18.235c0,7.293,2.294,12.992,6.87,17.098 c4.468,4.934,9.963,7.402,16.478,7.402c6.525,0,12.103-2.469,16.744-7.402c4.637-4.939,6.958-10.779,6.958-17.538 C234.747,85.074,232.461,79.109,227.88,73.937z"/><path fill="#4F4E4E" d="M350.719,89.272c0,2.592-0.864,4.672-2.564,6.257c-1.705,1.587-3.966,2.38-6.779,2.38h-56.048 c1.053,5.055,3.057,8.93,5.988,11.631c3.762,4.352,9.257,6.957,16.486,7.842c7.229,0.881,13.479-0.562,18.765-4.316 c1.756-1.875,4.111-2.816,7.05-2.816c2.937,0,4.994,0.762,6.168,2.291c3.293,3.633,3.293,7.461,0,11.451 c-8.457,7.752-18.831,11.6-31.106,11.539c-12.28-0.055-22.558-4.365-30.841-12.947c-8.282-8.574-12.48-18.912-12.597-31.01 c0.117-12.104,4.315-22.476,12.597-31.114c8.284-8.632,18.296-12.955,30.051-12.955c11.742,0,21.64,3.855,29.697,11.549 c8.042,7.692,12.423,17.466,13.134,29.341V89.272z M308.245,64.252c-6.821,0.344-12.286,2.461-16.395,6.338 c-4.114,3.882-6.583,7.993-7.399,12.342h49.867c-1.05-4.109-3.902-8.112-8.542-11.987 C321.126,67.065,315.292,64.836,308.245,64.252z"/><path fill="#4F4E4E" d="M372.039,122.938c-8.234-8.461-12.345-18.771-12.345-30.937c0-12.161,4.111-22.617,12.345-31.364 c8.214-8.756,18.204-13.134,29.959-13.134c8.924,0,16.792,2.469,23.606,7.412c0.474-2.115,1.592-3.884,3.354-5.292 c1.761-1.415,3.849-2.12,6.254-2.12c2.409,0,4.523,0.912,6.338,2.729c1.823,1.829,2.738,4.035,2.738,6.617v68.016 c0,11.639-4.146,21.6-12.423,29.883c-8.28,8.281-18.241,12.414-29.868,12.414c-6.705,0-12.868-1.469-18.511-4.4 c-2.353-1.059-3.936-2.852-4.759-5.377c-0.823-2.518-0.642-4.961,0.527-7.316c1.178-2.348,2.968-3.938,5.378-4.754 c2.404-0.824,4.848-0.703,7.308,0.355c3.061,1.643,6.91,2.465,11.55,2.465c4.642,0,9.103-1.787,13.396-5.365 c4.287-3.59,7.02-8.09,8.192-13.496c-6.816,4.705-14.51,7.055-23.082,7.055C390.242,136.329,380.252,131.864,372.039,122.938z M378.729,92.094c0,6.938,2.236,12.861,6.701,17.795c4.46,4.936,10.012,7.402,16.65,7.402c6.642,0,12.188-2.404,16.653-7.219 c4.469-4.814,6.703-10.812,6.703-17.979c0-7.169-2.266-13.245-6.793-18.238c-4.521-4.996-10.013-7.486-16.472-7.486 c-6.464,0-11.985,2.55-16.568,7.662C381.025,79.134,378.729,85.16,378.729,92.094z"/><g><path fill="#4F4E4E" d="M484.001,29.078v3.708c0,2.702-0.909,4.996-2.729,6.864c-1.824,1.881-4.046,2.822-6.697,2.822 c-2.645,0-4.904-0.94-6.79-2.822c-1.869-1.869-2.81-4.163-2.81-6.864v-3.708c0-2.578,0.94-4.81,2.81-6.689 c1.886-1.874,4.146-2.816,6.79-2.816c2.651,0,4.873,0.903,6.697,2.727C483.092,24.12,484.001,26.383,484.001,29.078z"/><path fill="#4F4E4E" d="M467.7,50.416c1.818-1.816,4.079-2.735,6.782-2.735c2.704,0,4.965,0.919,6.789,2.735 c1.82,1.827,2.729,4.137,2.729,6.962v68.726c0,2.705-0.909,4.967-2.729,6.789c-1.824,1.826-4.046,2.729-6.697,2.729 c-2.645,0-4.904-0.941-6.79-2.824c-1.869-1.873-2.81-4.105-2.81-6.693V57.378C464.975,54.553,465.876,52.243,467.7,50.416z"/></g><g><path fill="#F1753E" d="M520.866,165.848c-1.941,1.932-4.23,2.91-6.868,2.91c-2.655,0-4.916-0.979-6.787-2.91 c-1.885-1.939-2.826-4.145-2.826-6.609V56.85c0-2.582,0.914-4.788,2.734-6.617c1.824-1.817,3.997-2.729,6.52-2.729 c2.525,0,4.701,0.705,6.52,2.12c1.825,1.408,2.913,3.11,3.264,5.108c7.401-4.81,15.394-7.228,23.968-7.228 c11.746,0,21.789,4.348,30.137,13.045c8.337,8.696,12.512,19.098,12.512,31.196s-4.175,22.404-12.512,30.92 c-8.348,8.531-18.391,12.789-30.137,12.789c-9.05,0-16.915-2.408-23.616-7.236v31.021 C523.773,161.704,522.802,163.909,520.866,165.848z M563.959,73.937c-4.584-4.809-10.171-7.223-16.747-7.223 c-6.579,0-12.133,2.436-16.66,7.317c-4.514,4.874-6.778,10.953-6.778,18.235c0,7.293,2.293,12.992,6.87,17.098 c4.471,4.934,9.963,7.402,16.477,7.402c6.525,0,12.102-2.469,16.747-7.402c4.634-4.939,6.958-10.779,6.958-17.538 C570.825,85.074,568.536,79.109,563.959,73.937z"/><path fill="#F1753E" d="M686.795,89.272c0,2.592-0.861,4.672-2.564,6.257c-1.706,1.587-3.967,2.38-6.778,2.38h-56.047 c1.053,5.055,3.059,8.93,5.987,11.631c3.76,4.352,9.257,6.957,16.484,7.842c7.229,0.881,13.48-0.562,18.764-4.316 c1.759-1.875,4.115-2.816,7.054-2.816c2.934,0,4.989,0.762,6.172,2.291c3.287,3.633,3.287,7.461,0,11.451 c-8.464,7.752-18.837,11.6-31.112,11.539c-12.279-0.055-22.559-4.365-30.843-12.947c-8.278-8.574-12.479-18.912-12.596-31.01 c0.116-12.104,4.317-22.476,12.596-31.114c8.284-8.632,18.301-12.955,30.052-12.955c11.746,0,21.645,3.855,29.698,11.549 c8.039,7.692,12.426,17.466,13.134,29.341V89.272z M644.321,64.252c-6.821,0.344-12.287,2.461-16.395,6.338 c-4.117,3.882-6.584,7.993-7.398,12.342h49.866c-1.051-4.109-3.903-8.112-8.544-11.987 C657.207,67.065,651.371,64.836,644.321,64.252z"/><path fill="#F1753E" d="M708.115,122.938c-8.23-8.461-12.343-18.771-12.343-30.937c0-12.161,4.112-22.617,12.343-31.364 c8.213-8.756,18.201-13.134,29.964-13.134c8.919,0,16.788,2.469,23.605,7.412c0.476-2.115,1.585-3.884,3.349-5.292 c1.761-1.415,3.852-2.12,6.256-2.12c2.407,0,4.527,0.912,6.338,2.729c1.823,1.829,2.737,4.035,2.737,6.617v68.016 c0,11.639-4.142,21.6-12.424,29.883c-8.28,8.281-18.239,12.414-29.861,12.414c-6.709,0-12.871-1.469-18.517-4.4 c-2.353-1.059-3.931-2.852-4.755-5.377c-0.824-2.518-0.643-4.961,0.524-7.316c1.18-2.348,2.967-3.938,5.377-4.754 c2.407-0.824,4.85-0.703,7.309,0.355c3.066,1.643,6.909,2.465,11.553,2.465c4.641,0,9.103-1.787,13.394-5.365 c4.287-3.59,7.019-8.09,8.196-13.496c-6.821,4.705-14.516,7.055-23.081,7.055C726.316,136.329,716.328,131.864,708.115,122.938z M714.808,92.094c0,6.938,2.232,12.861,6.697,17.795c4.468,4.936,10.017,7.402,16.649,7.402c6.642,0,12.188-2.404,16.654-7.219 c4.469-4.814,6.707-10.812,6.707-17.979c0-7.169-2.271-13.245-6.793-18.238c-4.527-4.996-10.019-7.486-16.477-7.486 c-6.464,0-11.983,2.55-16.568,7.662C717.102,79.134,714.808,85.16,714.808,92.094z"/><g><path fill="#F1753E" d="M820.077,29.078v3.708c0,2.702-0.907,4.996-2.726,6.864c-1.826,1.881-4.049,2.822-6.699,2.822 c-2.645,0-4.906-0.94-6.788-2.822c-1.875-1.869-2.813-4.163-2.813-6.864v-3.708c0-2.578,0.938-4.81,2.813-6.689 c1.882-1.874,4.144-2.816,6.788-2.816c2.65,0,4.873,0.903,6.699,2.727C819.17,24.12,820.077,26.383,820.077,29.078z"/><path fill="#F1753E" d="M803.776,50.416c1.818-1.816,4.081-2.735,6.78-2.735c2.708,0,4.969,0.919,6.795,2.735 c1.818,1.827,2.726,4.137,2.726,6.962v68.726c0,2.705-0.907,4.967-2.726,6.789c-1.826,1.826-4.049,2.729-6.699,2.729 c-2.645,0-4.906-0.941-6.788-2.824c-1.875-1.873-2.813-4.105-2.813-6.693V57.378C801.051,54.553,801.954,52.243,803.776,50.416z"/></g></g></g></svg>